# xmcd
#
# Track frame offsets:
#	150
#	12780
#	26284
#	42988
#	61498
#	79429
#	92864
#	111174
#	129243
#	152236
#	171839
#	187838
#	204966
#	218530
#	234413
#	258071
#
# Disc length: 4004 seconds
#
# Revision: 0
# Processed by: cddbd v1.5.2PL0 Copyright (c) Steve Scherf et al.
# Submitted via: EZCDAudioConverter 2.1.7.1
#
DISCID=c50fa210
DTITLE=Leon Russell - The Best Of...
DYEAR=1900
DGENRE=
TTITLE0=Tryin' To Stay 'Live
TTITLE1=Shoot Out On The Plantation
TTITLE2=Elton John and Leon Russell - If It Wasn't For Bad
TTITLE3=A Song For You
TTITLE4=Hummingbird
TTITLE5=Tight Rope
TTITLE6=Delta Lady
TTITLE7=Stranger In A Strange Land
TTITLE8=It's A Hard Rain's A-Gonna Fall
TTITLE9=This Masquerade
TTITLE10=Out In The Woods
TTITLE11=If I Were A Carpenter
TTITLE12=Willie Nelson with Leon Russell - Heartbreak Hotel
TTITLE13=Lady Blue
TTITLE14=Back To The Island
TTITLE15=Jumpin' Jack Flash/Youngblood [Live]
EXTD=
EXTT0=
EXTT1=
EXTT2=
EXTT3=
EXTT4=
EXTT5=
EXTT6=
EXTT7=
EXTT8=
EXTT9=
EXTT10=
EXTT11=
EXTT12=
EXTT13=
EXTT14=
EXTT15=
PLAYORDER=
